<?xml version="1.0" encoding="utf-8"?><svg xmlns="http://www.w3.org/2000/svg" xmlns:xlink="http://www.w3.org/1999/xlink"><symbol viewBox="0 0 16 16" id="arrow" xmlns="http://www.w3.org/2000/svg"><defs><filter x="-25%" y="-25%" width="150%" height="150%" filterUnits="objectBoundingBox" id="aa"><feOffset in="SourceAlpha" result="shadowOffsetOuter1"/><feGaussianBlur stdDeviation="1" in="shadowOffsetOuter1" result="shadowBlurOuter1"/><feColorMatrix values="0 0 0 0 0.239215686 0 0 0 0 0.62745098 0 0 0 0 0.560784314 0 0 0 0.793506567 0" in="shadowBlurOuter1"/></filter><circle id="ab" cx="6" cy="6" r="6"/></defs><g fill-rule="evenodd"><g transform="translate(2 2)"><use filter="url(#aa)" xlink:href="#ab"/><use xlink:href="#ab"/></g><path d="M8.582 6l-.363.35 1.452 1.4H5.333v.5h4.338L8.22 9.65l.363.35 2.074-2z" fill="#fff"/></g></symbol><symbol viewBox="0 0 896 1664" id="facebook" xmlns="http://www.w3.org/2000/svg"><path d="M895 12v264H738q-86 0-116 36t-30 108v189h293l-39 296H592v759H286V905H31V609h255V391q0-186 104-288.5T667 0q147 0 228 12z"/></symbol><symbol viewBox="0 0 24 24" id="instagram" xmlns="http://www.w3.org/2000/svg"><path fill-rule="evenodd" d="M7.465 1.066C8.638 1.012 9.012 1 12 1c2.988 0 3.362.013 4.534.066 1.172.053 1.972.24 2.672.511.733.277 1.398.71 1.948 1.27.56.549.992 1.213 1.268 1.947.272.7.458 1.5.512 2.67C22.988 8.639 23 9.013 23 12c0 2.988-.013 3.362-.066 4.535-.053 1.17-.24 1.97-.512 2.67a5.396 5.396 0 01-1.268 1.949c-.55.56-1.215.992-1.948 1.268-.7.272-1.5.458-2.67.512-1.174.054-1.548.066-4.536.066-2.988 0-3.362-.013-4.535-.066-1.17-.053-1.97-.24-2.67-.512a5.397 5.397 0 01-1.949-1.268 5.392 5.392 0 01-1.269-1.948c-.271-.7-.457-1.5-.511-2.67C1.012 15.361 1 14.987 1 12c0-2.988.013-3.362.066-4.534.053-1.172.24-1.972.511-2.672a5.396 5.396 0 011.27-1.948 5.392 5.392 0 011.947-1.269c.7-.271 1.5-.457 2.67-.511zm8.98 1.98c-1.16-.053-1.508-.064-4.445-.064-2.937 0-3.285.011-4.445.064-1.073.049-1.655.228-2.043.379-.513.2-.88.437-1.265.822a3.412 3.412 0 00-.822 1.265c-.151.388-.33.97-.379 2.043-.053 1.16-.064 1.508-.064 4.445 0 2.937.011 3.285.064 4.445.049 1.073.228 1.655.379 2.043.176.477.457.91.822 1.265.355.365.788.646 1.265.822.388.151.97.33 2.043.379 1.16.053 1.507.064 4.445.064 2.938 0 3.285-.011 4.445-.064 1.073-.049 1.655-.228 2.043-.379.513-.2.88-.437 1.265-.822.365-.355.646-.788.822-1.265.151-.388.33-.97.379-2.043.053-1.16.064-1.508.064-4.445 0-2.937-.011-3.285-.064-4.445-.049-1.073-.228-1.655-.379-2.043-.2-.513-.437-.88-.822-1.265a3.413 3.413 0 00-1.265-.822c-.388-.151-.97-.33-2.043-.379zm-5.85 12.345a3.669 3.669 0 004-5.986 3.67 3.67 0 10-4 5.986zM8.002 8.002a5.654 5.654 0 117.996 7.996 5.654 5.654 0 01-7.996-7.996zm10.906-.814a1.337 1.337 0 10-1.89-1.89 1.337 1.337 0 001.89 1.89z" clip-rule="evenodd"/></symbol><symbol viewBox="0 0 166 49" id="logo" xmlns="http://www.w3.org/2000/svg"><defs><path id="da" d="M.014.03h93.96v48.29H.015z"/></defs><g fill-rule="evenodd"><path d="M0 14.13v.123l27.95 13.13L56 14.209v-.033L27.95 1 0 14.13zm10.077.062L27.95 5.795l17.877 8.397-17.877 8.396-17.874-8.396zM27.95 32.483L0 19.55v4.784l27.95 12.964L56 24.289v-4.784L27.95 32.483zm0 9.703L0 29.25v4.783L27.95 47 56 33.99v-4.784l-28.05 12.98z"/><g transform="translate(72)"><mask id="db"><use xlink:href="#da"/></mask><path d="M87.56 24.152a8.1 8.1 0 00-2.161-5.573 7.259 7.259 0 00-2.34-1.673 6.864 6.864 0 00-2.85-.601c-1.01 0-1.961.2-2.852.601a7.257 7.257 0 00-2.34 1.673 8.102 8.102 0 00-2.16 5.574 8.102 8.102 0 002.16 5.573 7.257 7.257 0 002.34 1.672 6.864 6.864 0 002.851.602c1.01 0 1.96-.2 2.852-.602a7.259 7.259 0 002.339-1.672 8.1 8.1 0 002.16-5.574zm6.415 0c0 1.932-.357 3.723-1.07 5.373a13.098 13.098 0 01-2.94 4.28c-1.247 1.205-2.71 2.156-4.388 2.854-1.678.699-3.468 1.048-5.369 1.048-1.9 0-3.683-.349-5.346-1.048a13.863 13.863 0 01-4.366-2.876 13.351 13.351 0 01-2.94-4.302c-.713-1.65-1.07-3.426-1.07-5.329 0-1.873.364-3.634 1.092-5.284a13.92 13.92 0 012.962-4.325 13.671 13.671 0 014.367-2.898 13.552 13.552 0 015.301-1.048c1.901 0 3.69.35 5.369 1.048 1.678.698 3.14 1.65 4.388 2.854 1.248 1.204 2.228 2.638 2.94 4.302.713 1.665 1.07 3.449 1.07 5.351zM64.258 36.905a8.6 8.6 0 01-1.715.58c-.638.148-1.3.222-1.982.222a9.84 9.84 0 01-2.74-.379 6.003 6.003 0 01-2.295-1.226c-.653-.565-1.173-1.3-1.56-2.207-.385-.907-.578-2-.578-3.277V.029h6.549v29.474c0 1.07.215 1.806.646 2.207.43.401.943.602 1.537.602.742 0 1.455-.223 2.138-.669v5.262zM50.492 11.22L38.908 41.854c-.861 2.289-1.99 3.939-3.386 4.95-1.396 1.01-3.06 1.515-4.99 1.515-.297 0-.623-.022-.98-.066a7.352 7.352 0 01-1.025-.201l-2.138-5.975a8.486 8.486 0 001.56.557 6.232 6.232 0 001.514.201c1.01 0 1.93-.23 2.762-.691.832-.46 1.47-1.315 1.916-2.564l.891-2.586-9.935-25.773h6.995l5.925 16.588 5.57-16.588h6.905zM23.538 7.342H6.786v8.294h16.529v5.618H6.785v15.784H.015V1.412h23.524v5.93z" mask="url(#db)"/></g></g></symbol><symbol viewBox="0 0 24 24" id="twitter" xmlns="http://www.w3.org/2000/svg"><path d="M23.643 4.937c-.835.37-1.732.62-2.675.733a4.67 4.67 0 002.048-2.578 9.3 9.3 0 01-2.958 1.13 4.66 4.66 0 00-7.938 4.25 13.229 13.229 0 01-9.602-4.868c-.4.69-.63 1.49-.63 2.342A4.66 4.66 0 003.96 9.824a4.647 4.647 0 01-2.11-.583v.06a4.66 4.66 0 003.737 4.568 4.692 4.692 0 01-2.104.08 4.661 4.661 0 004.352 3.234 9.348 9.348 0 01-5.786 1.995 9.5 9.5 0 01-1.112-.065 13.175 13.175 0 007.14 2.093c8.57 0 13.255-7.098 13.255-13.254 0-.2-.005-.402-.014-.602a9.47 9.47 0 002.323-2.41l.002-.003z"/></symbol></svg>